<?xml version="1.0" encoding="utf-8"?>
<svg viewBox="17.146 44.31 13.375 12.703" style="enable-background:new 0 0 100 100;" xmlns="http://www.w3.org/2000/svg">
  <path d="M89,47c-2.1025391,0-3.1708984,1.3134766-4.0292969,2.3691406C84.1230469,50.4106445,83.5898438,51,82.4921875,51  s-1.6298828-0.5893555-2.4775391-1.6308594C79.15625,48.3134766,78.0878906,47,75.9853516,47  c-2.1015625,0-3.1699219,1.3139648-4.0283203,2.3696289C71.1113281,50.4106445,70.578125,51,69.4824219,51  c-1.0947266,0-1.6269531-0.5893555-2.4726562-1.6303711C66.1523438,48.3139648,65.0849609,47,62.984375,47  s-3.1679688,1.3134766-4.0263672,2.3691406C58.1123047,50.4106445,57.5800781,51,56.4833984,51  c-1.0947266,0-1.6269531-0.5888672-2.4726562-1.6303711C53.1533203,48.3139648,52.0859375,47,49.984375,47  c-2.1005859,0-3.1679688,1.3134766-4.0253906,2.3691406C45.1132812,50.4106445,44.5810547,51,43.4853516,51  c-1.0947266,0-1.6269531-0.5888672-2.4726562-1.6303711C40.1552734,48.3139648,39.0878906,47,36.9863281,47  c-2.1005859,0-3.1669922,1.3139648-4.0244141,2.3696289C32.1162109,50.4106445,31.5849609,51,30.4902344,51  c-1.09375,0-1.6259766-0.5893555-2.4707031-1.6303711C27.1630859,48.3139648,26.0966797,47,23.9970703,47  c-2.1015625,0-3.1689453,1.3139648-4.0263672,2.3696289C19.125,50.4111328,18.5927734,51,17.4980469,51  s-1.6269531-0.5893555-2.4726562-1.6303711C14.1679688,48.3139648,13.1005859,47,11,47c-0.5527344,0-1,0.4477539-1,1  s0.4472656,1,1,1c1.0947266,0,1.6269531,0.5893555,2.4726562,1.6303711C14.3300781,51.6860352,15.3974609,53,17.4980469,53  s3.1679688-1.3134766,4.0253906-2.3691406C22.3691406,49.5893555,22.9013672,49,23.9970703,49  c1.09375,0,1.625,0.5888672,2.4697266,1.6298828C27.3232422,51.6860352,28.390625,53,30.4902344,53  c2.1005859,0,3.1669922-1.3139648,4.0244141-2.3696289C35.3603516,49.5893555,35.8916016,49,36.9863281,49  c1.0957031,0,1.6279297,0.5893555,2.4736328,1.6308594C40.3173828,51.6865234,41.3847656,53,43.4853516,53  c2.1015625,0,3.1689453-1.3139648,4.0263672-2.3696289C48.3574219,49.5888672,48.8896484,49,49.984375,49  c1.0957031,0,1.6279297,0.5893555,2.4736328,1.6308594C53.3154297,51.6865234,54.3828125,53,56.4833984,53  c2.1015625,0,3.1689453-1.3139648,4.0273438-2.3696289C61.3564453,49.5893555,61.8886719,49,62.984375,49  c1.0947266,0,1.6269531,0.5893555,2.4726562,1.6303711C66.3144531,51.6860352,67.3818359,53,69.4824219,53  c2.1015625,0,3.1689453-1.3134766,4.0273438-2.3691406C74.3564453,49.5893555,74.8886719,49,75.9853516,49  c1.0976562,0,1.6308594,0.5893555,2.4785156,1.6313477C79.3222656,51.6865234,80.390625,53,82.4921875,53  c2.1025391,0,3.1708984-1.3134766,4.0292969-2.3691406C87.3691406,49.5893555,87.9023438,49,89,49c0.5527344,0,1-0.4477539,1-1  S89.5527344,47,89,47z" fill="#ffffff"/>
</svg>